<?xml version="1.0" standalone="no"?>
<!DOCTYPE svg PUBLIC "-//W3C//DTD SVG 20010904//EN"
 "http://www.w3.org/TR/2001/REC-SVG-20010904/DTD/svg10.dtd">
<svg version="1.0" xmlns="http://www.w3.org/2000/svg"
 width="1280.000000pt" height="1280.000000pt" viewBox="0 0 1280.000000 1280.000000"
 preserveAspectRatio="xMidYMid meet">
<metadata>
Created by potrace 1.15, written by Peter Selinger 2001-2017
</metadata>
<g transform="translate(0.000000,1280.000000) scale(0.100000,-0.100000)"
fill="#000000" stroke="none">
<path d="M6266 12785 c-110 -28 -185 -72 -272 -159 -58 -58 -90 -100 -112
-147 -63 -133 -62 -104 -62 -1102 0 -717 -3 -908 -12 -911 -7 -2 -89 -17 -183
-34 -198 -37 -414 -94 -593 -158 -70 -26 -136 -48 -147 -50 -17 -4 -36 23
-116 163 -53 93 -255 445 -450 783 -318 552 -361 621 -419 680 -176 176 -440
219 -669 108 -92 -45 -217 -170 -259 -259 -65 -136 -78 -285 -37 -427 13 -47
142 -279 472 -850 249 -432 453 -788 452 -791 0 -3 -35 -33 -77 -66 -100 -78
-469 -447 -547 -547 -40 -51 -65 -75 -75 -72 -8 3 -359 204 -780 447 -420 242
-794 452 -830 466 -91 35 -261 37 -365 4 -413 -130 -540 -663 -230 -967 54
-53 162 -119 847 -514 l786 -453 -40 -100 c-75 -196 -150 -473 -191 -712 l-23
-132 -940 -5 -939 -5 -62 -23 c-173 -65 -308 -204 -364 -374 -19 -58 -24 -94
-24 -178 0 -134 25 -219 96 -324 73 -110 160 -176 299 -230 54 -21 66 -21 994
-26 l940 -5 23 -132 c41 -238 122 -535 197 -725 19 -49 31 -90 28 -92 -4 -2
-356 -205 -782 -451 -426 -246 -796 -465 -822 -487 -65 -54 -143 -174 -170
-261 -32 -100 -32 -253 -1 -352 53 -170 196 -316 366 -375 124 -43 295 -37
413 15 29 13 398 222 819 465 l765 442 23 -28 c126 -162 441 -482 590 -599 42
-33 76 -63 76 -66 1 -4 -203 -360 -453 -793 -503 -871 -491 -846 -491 -1021 0
-204 93 -373 268 -486 94 -61 180 -84 312 -84 168 0 290 50 405 165 70 70 36
13 691 1152 151 263 278 477 282 478 5 0 63 -20 130 -44 222 -81 466 -144 704
-185 l108 -18 5 -934 5 -934 27 -74 c83 -227 280 -375 518 -389 222 -12 441
111 543 305 69 131 67 97 67 1110 l0 913 23 5 c12 2 51 9 87 15 208 34 457 99
678 175 90 31 165 55 167 53 1 -1 200 -345 441 -763 241 -418 459 -787 484
-820 58 -76 174 -156 272 -187 96 -30 265 -32 348 -4 201 68 344 220 395 421
29 114 13 280 -36 378 -16 32 -477 833 -876 1523 l-23 41 121 103 c154 131
338 314 469 469 94 111 104 120 124 109 11 -6 360 -207 775 -446 415 -240 784
-447 820 -460 89 -33 230 -41 321 -18 174 44 316 156 389 309 21 45 44 106 50
135 39 191 -21 396 -158 531 -61 60 -134 105 -846 515 -429 247 -782 450 -784
452 -2 2 17 61 42 131 82 227 144 463 182 683 9 52 18 105 21 118 l4 22 913 0
c998 0 962 -2 1092 59 130 61 247 194 296 338 34 98 34 268 0 366 -49 145
-160 270 -296 337 -126 62 -92 60 -1092 60 l-913 0 -4 23 c-2 12 -19 99 -36
192 -36 191 -98 417 -166 608 -26 70 -45 129 -43 131 2 2 355 205 784 452 710
409 785 455 845 514 67 67 113 143 146 240 29 85 26 263 -5 353 -65 189 -223
333 -421 383 -81 20 -221 15 -305 -12 -36 -11 -370 -198 -845 -472 l-785 -453
-25 29 c-14 16 -61 71 -105 123 -101 119 -292 310 -414 414 -52 44 -107 91
-123 105 l-28 25 436 755 c240 415 449 782 464 815 77 168 61 387 -39 543
-108 166 -264 257 -461 269 -170 10 -324 -49 -439 -167 -59 -60 -110 -144
-510 -838 -245 -425 -448 -777 -452 -783 -4 -8 -61 8 -181 49 -199 69 -433
130 -623 162 -71 12 -136 24 -142 26 -10 3 -13 195 -13 916 0 998 1 978 -59
1096 -67 133 -201 249 -339 293 -87 28 -235 34 -316 14z m549 -3569 c331 -54
605 -143 888 -289 521 -266 953 -698 1223 -1221 216 -419 315 -829 315 -1306
0 -477 -97 -881 -314 -1305 -266 -519 -698 -951 -1221 -1221 -287 -148 -560
-236 -901 -291 -158 -26 -652 -26 -810 0 -247 40 -458 98 -666 182 -961 391
-1634 1276 -1753 2305 -20 173 -21 485 -1 654 59 505 245 974 545 1375 464
620 1137 1015 1910 1122 174 24 626 21 785 -5z"/>
<path d="M6120 8515 c-460 -64 -874 -265 -1204 -584 -533 -516 -757 -1268
-596 -2005 31 -143 92 -312 164 -461 315 -644 931 -1087 1639 -1180 182 -23
476 -18 620 11 27 6 24 9 -60 66 -521 355 -904 947 -1022 1578 -46 249 -53
593 -16 830 107 682 487 1287 1051 1677 72 49 74 51 47 57 -138 28 -458 34
-623 11z"/>
</g>
</svg>
